<?xml version="1.0" encoding="utf-8"?>
<!-- Generator: Adobe Illustrator 23.0.1, SVG Export Plug-In . SVG Version: 6.00 Build 0)  -->
<svg version="1.1" id="Layer_1" xmlns="http://www.w3.org/2000/svg" xmlns:xlink="http://www.w3.org/1999/xlink" x="0px" y="0px"
	 viewBox="0 0 655.4 92.7" style="enable-background:new 0 0 655.4 92.7;" xml:space="preserve">
<g>
	<g>
		<path d="M144.7,65.6c1.6,0,3-0.1,4.1-0.2s2.3-0.4,3.4-0.8c1.1-0.4,2-0.9,2.6-1.6c0.7-0.7,1.2-1.6,1.6-2.7s0.6-2.4,0.6-3.9
			c0-0.9-0.1-1.8-0.3-2.6c-0.2-0.8-0.5-1.5-0.8-2.1s-0.8-1.1-1.4-1.6c-0.6-0.5-1.1-0.9-1.7-1.3s-1.2-0.7-2-1s-1.6-0.6-2.2-0.8
			c-0.7-0.2-1.5-0.5-2.4-0.7c-0.5-0.1-0.8-0.2-1-0.3c-1.8-0.6-3.4-1.1-4.7-1.5c-1.3-0.5-2.6-1-4-1.6c-1.4-0.6-2.5-1.3-3.4-2
			s-1.8-1.5-2.7-2.4s-1.5-1.9-2-3c-0.5-1.1-0.9-2.4-1.2-3.8c-0.3-1.4-0.4-3-0.4-4.7c0-2.7,0.3-5.1,1-7.2c0.7-2.1,1.6-3.8,2.8-5.2
			c1.2-1.4,2.8-2.5,4.7-3.4c1.9-0.9,4-1.5,6.4-1.9c2.3-0.4,5-0.6,8.1-0.6c6,0,11.9,0.6,17.9,1.8l-1,8.7c-5.7-0.9-10.4-1.3-13.9-1.3
			c-0.8,0-1.4,0-2,0c-0.5,0-1.2,0-2.1,0.1s-1.6,0.1-2.2,0.2c-0.6,0.1-1.3,0.2-2.1,0.4c-0.8,0.2-1.5,0.4-2,0.7
			c-0.6,0.3-1.1,0.6-1.7,1c-0.6,0.4-1,0.8-1.4,1.3c-0.4,0.5-0.6,1.1-0.9,1.8c-0.2,0.7-0.3,1.4-0.3,2.2c0,1.4,0.2,2.6,0.6,3.7
			c0.4,1.1,0.9,1.9,1.3,2.5s1.3,1.2,2.6,1.8c1.3,0.6,2.3,1,3,1.2c0.7,0.2,2.1,0.6,4,1.1c0.6,0.2,1,0.3,1.3,0.4
			c2.5,0.7,4.6,1.4,6.4,2.1c1.8,0.7,3.4,1.6,4.9,2.7c1.5,1.1,2.7,2.3,3.6,3.6c0.9,1.4,1.6,3,2.1,4.8s0.7,3.9,0.7,6.3
			c0,3.5-0.5,6.4-1.6,8.9c-1,2.5-2.6,4.4-4.7,5.9c-2.1,1.5-4.5,2.6-7.4,3.2s-6.3,1-10.1,1c-6.2,0-12.2-0.6-18.1-1.8l1.1-9
			C134.3,65.1,139.9,65.6,144.7,65.6z"/>
		<path d="M221.8,42.5v31.8h-10.6V43.8c0-1.4-0.1-2.6-0.2-3.6c-0.1-1-0.3-1.9-0.6-2.8c-0.3-0.9-0.7-1.6-1.3-2.2
			c-0.5-0.6-1.2-1-2.1-1.5s-1.9-0.7-3.2-0.9c-1.2-0.2-2.7-0.3-4.4-0.3c-3.3,0-6.5,0.7-9.4,2v39.9h-10.6V5.6h10.6v20.4
			c3.9-1.2,8-1.9,12.3-1.9c2.5,0,4.7,0.2,6.6,0.5c1.9,0.3,3.6,0.8,4.9,1.3s2.5,1.3,3.5,2.2c1,0.9,1.7,1.8,2.3,2.8
			c0.6,1,1,2.1,1.3,3.5c0.3,1.3,0.5,2.6,0.6,3.9C221.7,39.5,221.8,40.9,221.8,42.5z"/>
		<path d="M274.4,37.5v55.1h-10.6v-19c-3.7,0.9-7.3,1.4-10.8,1.4c-3.1,0-5.8-0.3-8.1-0.8s-4.3-1.4-6.1-2.6c-1.8-1.2-3.2-2.8-4.3-4.8
			s-1.9-4.4-2.4-7.2c-0.5-2.8-0.8-6.2-0.8-10c0-4.9,0.4-8.9,1.3-12.2s2.3-5.9,4.2-7.9c1.9-2,4.3-3.4,7.1-4.2
			c2.8-0.8,6.3-1.2,10.5-1.2c3.5,0,7,0.4,10.4,1.1c3.4,0.7,6.5,1.8,9.1,3.3C274.2,31.4,274.4,34.5,274.4,37.5z M263.8,40.5
			c0-2.6-0.1-4.8-0.3-6.7c-1-0.5-2.4-1-4-1.2c-1.7-0.3-3.3-0.4-5-0.4c-1.3,0-2.5,0.1-3.6,0.3c-1.1,0.2-2,0.5-2.8,0.8
			c-0.8,0.3-1.5,0.8-2.1,1.4c-0.6,0.6-1.2,1.2-1.6,1.7s-0.8,1.3-1.1,2.2c-0.3,0.9-0.5,1.7-0.7,2.4c-0.2,0.8-0.3,1.7-0.4,2.7
			c-0.1,1.1-0.2,2-0.2,2.8c0,0.8,0,1.8,0,3c0,1.4,0,2.5,0,3.3s0.1,1.8,0.2,2.9c0.1,1.2,0.2,2.1,0.4,2.8c0.2,0.7,0.4,1.5,0.7,2.3
			s0.7,1.6,1.1,2.1c0.5,0.5,1,1.1,1.7,1.6c0.7,0.6,1.5,1,2.3,1.3s1.9,0.5,3.1,0.7c1.2,0.2,2.5,0.3,3.9,0.3c2.8,0,5.6-0.5,8.4-1.4
			V40.5z"/>
		<path d="M299.3,11.3c0,2.5-0.5,4.1-1.4,5.1c-0.9,0.9-2.6,1.4-5.1,1.4c-2.5,0-4.2-0.5-5.1-1.4c-0.9-0.9-1.4-2.6-1.4-5.1
			c0-2.4,0.5-4.1,1.4-5c0.9-0.9,2.6-1.4,5-1.4c2.5,0,4.1,0.5,5.1,1.4C298.8,7.2,299.3,8.9,299.3,11.3z M298.2,74.4h-10.6V24.7h10.6
			V74.4z"/>
		<path d="M321.8,73.7v19h-10.6V37.5c0-3.1,0.1-6.1,0.4-9.1c2.6-1.5,5.6-2.6,9.1-3.3c3.4-0.7,6.9-1.1,10.4-1.1
			c4.2,0,7.7,0.4,10.5,1.2c2.8,0.8,5.2,2.2,7.1,4.2c1.9,2,3.3,4.6,4.2,7.9s1.3,7.3,1.3,12.2c0,3.8-0.3,7.2-0.8,10
			c-0.5,2.8-1.4,5.2-2.4,7.2c-1.1,2-2.5,3.6-4.3,4.8c-1.8,1.2-3.8,2.1-6.1,2.6s-5,0.8-8.1,0.8C329.1,75,325.5,74.6,321.8,73.7z
			 M321.8,65.5c2.7,0.9,5.5,1.4,8.4,1.4c1.4,0,2.8-0.1,3.9-0.3c1.2-0.2,2.2-0.4,3.1-0.7c0.9-0.3,1.7-0.7,2.3-1.3
			c0.7-0.6,1.2-1.1,1.7-1.6c0.5-0.5,0.8-1.2,1.1-2.1s0.5-1.7,0.7-2.3c0.2-0.7,0.3-1.6,0.4-2.8c0.1-1.2,0.1-2.1,0.2-2.9
			c0-0.8,0-1.9,0-3.3c0-1.2,0-2.2,0-3c0-0.8-0.1-1.8-0.2-2.8c-0.1-1.1-0.2-2-0.4-2.7c-0.2-0.8-0.4-1.6-0.7-2.4
			c-0.3-0.9-0.7-1.6-1.1-2.2s-1-1.2-1.6-1.7s-1.3-1-2.1-1.4s-1.7-0.6-2.8-0.8s-2.3-0.3-3.6-0.3c-1.7,0-3.3,0.1-5,0.4
			c-1.7,0.3-3,0.7-4,1.2c-0.2,1.8-0.3,4.1-0.3,6.7V65.5z"/>
		<path d="M381,65.6c1.6,0,3-0.1,4.1-0.2s2.3-0.4,3.4-0.8c1.1-0.4,2-0.9,2.6-1.6c0.7-0.7,1.2-1.6,1.6-2.7s0.6-2.4,0.6-3.9
			c0-0.9-0.1-1.8-0.3-2.6c-0.2-0.8-0.5-1.5-0.8-2.1s-0.8-1.1-1.4-1.6c-0.6-0.5-1.1-0.9-1.7-1.3s-1.2-0.7-2-1s-1.6-0.6-2.2-0.8
			c-0.7-0.2-1.5-0.5-2.4-0.7c-0.5-0.1-0.8-0.2-1-0.3c-1.8-0.6-3.4-1.1-4.7-1.5c-1.3-0.5-2.6-1-4-1.6c-1.4-0.6-2.5-1.3-3.4-2
			s-1.8-1.5-2.7-2.4s-1.5-1.9-2-3c-0.5-1.1-0.9-2.4-1.2-3.8c-0.3-1.4-0.4-3-0.4-4.7c0-2.7,0.3-5.1,1-7.2c0.7-2.1,1.6-3.8,2.8-5.2
			c1.2-1.4,2.8-2.5,4.7-3.4c1.9-0.9,4-1.5,6.4-1.9c2.3-0.4,5-0.6,8.1-0.6c6,0,11.9,0.6,17.9,1.8l-1,8.7c-5.7-0.9-10.4-1.3-13.9-1.3
			c-0.8,0-1.4,0-2,0c-0.5,0-1.2,0-2.1,0.1s-1.6,0.1-2.2,0.2c-0.6,0.1-1.3,0.2-2.1,0.4c-0.8,0.2-1.5,0.4-2,0.7
			c-0.6,0.3-1.1,0.6-1.7,1c-0.6,0.4-1,0.8-1.4,1.3c-0.4,0.5-0.6,1.1-0.9,1.8c-0.2,0.7-0.3,1.4-0.3,2.2c0,1.4,0.2,2.6,0.6,3.7
			c0.4,1.1,0.9,1.9,1.3,2.5s1.3,1.2,2.6,1.8c1.3,0.6,2.3,1,3,1.2c0.7,0.2,2.1,0.6,4,1.1c0.6,0.2,1,0.3,1.3,0.4
			c2.5,0.7,4.6,1.4,6.4,2.1c1.8,0.7,3.4,1.6,4.9,2.7c1.5,1.1,2.7,2.3,3.6,3.6c0.9,1.4,1.6,3,2.1,4.8s0.7,3.9,0.7,6.3
			c0,3.5-0.5,6.4-1.6,8.9c-1,2.5-2.6,4.4-4.7,5.9c-2.1,1.5-4.5,2.6-7.4,3.2s-6.3,1-10.1,1c-6.2,0-12.2-0.6-18.1-1.8l1.1-9
			C370.6,65.1,376.2,65.6,381,65.6z"/>
		<path d="M439.7,66.7l0.8,7.6c-2.9,0.5-5.4,0.7-7.5,0.7c-5,0-8.6-1.1-10.9-3.3c-2.3-2.2-3.4-5.6-3.4-10.2V32.6h-8.4v-7.9h8.4V12.4
			l10.6-1.7v14h10.3v7.9h-10.3v28c0,2.3,0.5,4,1.5,4.9s2.7,1.4,5.1,1.4C437.1,66.9,438.3,66.8,439.7,66.7z"/>
		<path d="M460.6,40.8v33.6H450V37.5c0-3.1,0.1-6.1,0.4-9.1c2.6-1.5,5.6-2.6,9.1-3.3c3.4-0.7,6.9-1.1,10.4-1.1
			c1.7,0,3.3,0.1,4.6,0.2l-0.8,8.4c-1-0.1-2.3-0.2-3.8-0.2c-1.7,0-3.3,0.1-5,0.4c-1.7,0.3-3,0.7-4,1.2
			C460.7,36,460.6,38.2,460.6,40.8z"/>
		<path d="M500.4,54.4l-8.8,0.4c0.1,1.9,0.4,3.5,0.9,4.9c0.5,1.4,1.1,2.5,1.8,3.4c0.7,0.9,1.7,1.6,2.8,2.1c1.1,0.5,2.3,0.9,3.5,1.1
			c1.2,0.2,2.7,0.3,4.3,0.3c5.1,0,11-0.4,17.8-1.3l0.9,7.9c-7.5,1.2-14.7,1.8-21.4,1.8c-3.3,0-6.1-0.4-8.6-1.3c-2.5-0.8-4.5-2-6-3.5
			c-1.6-1.5-2.8-3.3-3.8-5.5c-1-2.2-1.7-4.5-2-7c-0.4-2.5-0.6-5.2-0.6-8.3c0-4.6,0.4-8.5,1.1-11.6c0.8-3.1,2-5.8,3.7-7.9
			c1.7-2.1,4-3.6,6.8-4.6c2.8-0.9,6.3-1.4,10.4-1.4c2.5,0,4.8,0.2,6.8,0.6c2,0.4,3.8,0.9,5.3,1.6c1.5,0.7,2.8,1.6,3.9,2.7
			s2,2.3,2.7,3.6c0.7,1.3,1.3,2.8,1.7,4.5c0.4,1.7,0.7,3.5,0.9,5.3c0.2,1.8,0.3,3.8,0.3,6c0,1.4,0,2.6-0.1,3.7
			c-2.8,0.5-6.7,1-11.7,1.5C508.2,54,503.9,54.3,500.4,54.4z M491.4,47.6l10-0.5c4.7-0.2,9-0.6,12.8-1.1c0.1-0.6,0.1-1.3,0.1-2.3
			c0-3.9-0.8-6.9-2.5-8.8c-1.7-1.9-4.5-2.9-8.5-2.9c-1.5,0-2.8,0.1-3.9,0.4c-1.2,0.3-2.2,0.6-3,1.1c-0.8,0.5-1.5,1.1-2.1,1.8
			c-0.6,0.7-1.1,1.5-1.4,2.3c-0.4,0.8-0.6,1.8-0.9,2.9c-0.2,1.1-0.3,2.2-0.4,3.3C491.4,45,491.4,46.2,491.4,47.6z"/>
		<path d="M552.7,75c-6.6,0-11.3-1.3-14.3-3.8c-2.9-2.5-4.4-6.4-4.4-11.7c0-4.5,1.1-8,3.2-10.6c2.1-2.6,5.5-4.2,10.2-4.9
			c3.5-0.5,9.4-1,17.6-1.3c0-3.5-0.8-6.1-2.5-7.8c-1.7-1.7-4.4-2.5-8.1-2.5c-4.9,0-10.6,0.4-17.3,1.3l-0.9-7.7
			c7.2-1.2,13.6-1.8,19.1-1.8c2.3,0,4.4,0.1,6.3,0.4c1.9,0.3,3.7,0.8,5.4,1.5c1.7,0.7,3.2,1.6,4.4,2.8c1.2,1.2,2.1,2.7,2.8,4.5
			c0.7,1.9,1,4,1,6.5v21.9c0,3.1-0.1,6.1-0.4,9.1C569.8,73.6,562.4,75,552.7,75z M565,58.8v-9.1c-0.2,0-0.8,0-1.9,0.1
			c-1,0-1.7,0.1-2.1,0.1c-0.4,0-1,0.1-1.9,0.1S557.5,50,557,50c-0.5,0-1.1,0.1-1.9,0.2s-1.4,0.2-2,0.3s-1.2,0.2-1.7,0.3
			c-2.7,0.6-4.5,1.5-5.5,2.6c-1,1.2-1.5,3.1-1.5,5.9c0,1.5,0.2,2.8,0.6,3.8c0.4,1,1,1.8,1.9,2.4c0.9,0.6,1.9,1,3,1.2
			c1.2,0.2,2.6,0.3,4.2,0.3c4.5,0,7.9-0.6,10.4-1.7C564.8,63.6,565,61.4,565,58.8z"/>
		<path d="M627.1,42.5v31.8h-10.6V43.7c0-2-0.1-3.6-0.4-4.9c-0.3-1.3-0.8-2.5-1.5-3.5c-0.7-1-1.7-1.7-3-2.2
			c-1.3-0.5-2.9-0.7-4.9-0.7c-1.3,0-2.6,0.2-4.1,0.5c-1.4,0.3-2.6,0.7-3.5,1.2c-0.2,1.8-0.3,4.1-0.3,6.7v33.6h-10.6V37.5
			c0-3.1,0.1-6.1,0.4-9.1c2.7-1.3,5.9-2.4,9.5-3.2c3.7-0.8,7.4-1.2,11.1-1.2c5.4,0,9.5,1,12.3,3.1c5.1-2.1,10.5-3.1,16-3.1
			c2.2,0,4.1,0.2,5.9,0.5c1.7,0.3,3.2,0.8,4.5,1.4c1.2,0.6,2.3,1.3,3.2,2.2c0.9,0.9,1.6,1.9,2.2,2.9c0.5,1,1,2.1,1.3,3.5
			c0.3,1.3,0.5,2.6,0.7,3.8c0.1,1.2,0.2,2.6,0.2,4.2v31.8h-10.6V43.7c0-2-0.1-3.6-0.4-4.9c-0.3-1.3-0.8-2.5-1.5-3.5
			c-0.7-1-1.7-1.7-3-2.2c-1.3-0.5-2.9-0.7-4.9-0.7c-1.3,0-2.7,0.2-4.3,0.6c-1.6,0.4-3.1,0.9-4.4,1.6
			C626.8,36.8,627.1,39.4,627.1,42.5z"/>
	</g>
	<g>
		<g>
			<path d="M93.7,52.8c-0.6-2.4-1.5-4.4-2.7-6.2c-1.2-1.7-2.7-3.3-4.6-4.7c-1.9-1.4-4-2.5-6.4-3.5c-2.3-1-5.1-1.9-8.2-2.7
				c-0.4-0.1-1-0.3-1.7-0.5c-2.5-0.7-4.3-1.1-5.2-1.4c-1-0.3-2.3-0.8-3.9-1.6c-1.7-0.8-2.8-1.5-3.4-2.3c-0.6-0.8-1.2-1.9-1.7-3.2
				c-0.6-1.4-0.8-3-0.8-4.8c0-1,0.1-2,0.4-2.9c0.3-0.9,0.7-1.6,1.1-2.3c0.5-0.6,1-1.2,1.8-1.7c0.7-0.5,1.5-0.9,2.2-1.3
				c0.7-0.3,1.6-0.6,2.6-0.8c1-0.2,1.9-0.4,2.7-0.5c0.8-0.1,1.8-0.2,2.8-0.3c1.1-0.1,2-0.1,2.7-0.1c0.7,0,1.6,0,2.5,0
				c4.5,0,10.5,0.6,17.9,1.7l1.3-11.3C85.4,0.8,77.7,0,70,0c-3.9,0-7.4,0.3-10.4,0.7c-3,0.5-5.8,1.3-8.2,2.4
				c-1.5,0.7-2.9,1.5-4.1,2.5c-0.7,0.6-1.4,1.2-2,1.9c-1.6,1.8-2.8,4-3.7,6.7c-0.9,2.7-1.3,5.7-1.3,9.2c0,2.2,0.2,4.3,0.6,6.1
				c0.4,1.8,0.9,3.4,1.5,4.9c0.6,1.4,1.5,2.7,2.6,3.9c0.7,0.8,1.5,1.5,2.3,2.2c0.4,0.3,0.8,0.6,1.2,0.9c1.2,0.9,2.7,1.7,4.4,2.5
				c1.8,0.8,3.5,1.5,5.2,2.1c1.7,0.6,3.7,1.3,6.1,2c0.3,0.1,0.7,0.2,1.3,0.4c1.2,0.4,2.2,0.7,3.1,1c0.9,0.3,1.8,0.6,2.9,1
				c1,0.4,1.9,0.8,2.6,1.3c0.7,0.4,1.4,1,2.2,1.6c0.7,0.6,1.3,1.3,1.8,2.1c0.5,0.7,0.8,1.6,1.1,2.7c0.3,1,0.4,2.2,0.4,3.4
				c0,2-0.3,3.7-0.8,5.1c-0.5,1.4-1.2,2.6-2.1,3.4c-0.9,0.9-2,1.6-3.4,2.1c-1.4,0.5-2.8,0.9-4.3,1.1c-1.5,0.2-3.3,0.3-5.3,0.3h-0.3
				v12.2c0.2,0,0.4,0,0.7,0c5,0,9.4-0.4,13.1-1.3c3.7-0.9,6.9-2.3,9.6-4.2c2.7-1.9,4.7-4.5,6-7.6c1.3-3.2,2-7,2-11.5
				C94.7,57.9,94.4,55.2,93.7,52.8z"/>
		</g>
		<g>
			<path d="M53,14.2c-0.9-2.6-2.1-4.9-3.7-6.7c-0.6-0.7-1.3-1.3-2-1.9c-1.2-1-2.5-1.8-4.1-2.5c-2.5-1.1-5.2-1.9-8.2-2.4
				C32.1,0.3,28.6,0,24.7,0C17,0,9.3,0.8,1.5,2.4l1.3,11.3c7.4-1.1,13.4-1.7,17.9-1.7c1,0,1.8,0,2.5,0c0.7,0,1.6,0.1,2.7,0.1
				c1.1,0.1,2,0.2,2.8,0.3c0.8,0.1,1.7,0.3,2.7,0.5c1,0.2,1.9,0.5,2.6,0.8c0.7,0.3,1.4,0.8,2.2,1.3c0.7,0.5,1.3,1.1,1.8,1.7
				c0.5,0.6,0.8,1.4,1.1,2.3c0.3,0.9,0.4,1.8,0.4,2.9c0,1.8-0.3,3.4-0.8,4.8c-0.6,1.4-1.1,2.5-1.7,3.2c-0.6,0.8-1.7,1.6-3.4,2.3
				c-1.7,0.7-3,1.3-3.9,1.6c-0.9,0.3-2.7,0.8-5.2,1.4c-0.7,0.2-1.3,0.4-1.7,0.5c-3.2,0.9-5.9,1.8-8.3,2.7c-2.3,1-4.4,2.1-6.3,3.5
				c-1.9,1.4-3.5,2.9-4.6,4.7c-1.2,1.8-2.1,3.8-2.7,6.2C0.3,55.2,0,57.9,0,60.9c0,4.5,0.7,8.3,2,11.5c1.3,3.2,3.4,5.7,6,7.6
				c2.7,1.9,5.8,3.3,9.6,4.2c3.7,0.9,7.9,1.3,12.8,1.3V73.4c-1.8,0-3.3-0.1-4.7-0.3c-1.5-0.2-3-0.5-4.3-1.1
				c-1.4-0.5-2.5-1.2-3.4-2.1c-0.9-0.9-1.6-2-2.1-3.4c-0.5-1.4-0.8-3.1-0.8-5.1c0-1.2,0.1-2.3,0.4-3.4c0.3-1,0.6-1.9,1.1-2.7
				c0.4-0.7,1-1.4,1.8-2.1c0.7-0.6,1.5-1.2,2.2-1.6c0.7-0.4,1.6-0.9,2.6-1.3c1-0.4,2-0.8,2.9-1c0.9-0.3,1.9-0.6,3.1-1
				c0.6-0.2,1-0.3,1.3-0.4c2.4-0.7,4.4-1.4,6.1-2c1.7-0.6,3.4-1.3,5.2-2.1c1.8-0.8,3.3-1.7,4.4-2.5c0.4-0.3,0.8-0.6,1.2-0.9
				c0.8-0.6,1.5-1.4,2.3-2.2c1.1-1.2,2-2.5,2.6-3.9c0.6-1.4,1.1-3,1.5-4.9c0.4-1.8,0.6-3.8,0.6-6.1C54.2,19.9,53.8,16.9,53,14.2z"/>
		</g>
		<rect x="30.4" y="73.4" width="32.9" height="12.2"/>
	</g>
</g>
</svg>
